#N canvas 311 220 885 337 10;
#X obj 196 20 keyname;
#X obj 241 148 unpack s;
#X obj 129 169 sel v b n;
#X obj 77 169 onkai1;
#X obj 136 251 s o1;
#X obj 168 251 s o2;
#X obj 201 251 s o3;
#X obj 16 137 r o1;
#X obj 45 137 r o2;
#X obj 74 137 r o3;
#X obj 212 193 s u0;
#X obj 243 193 s u1;
#X obj 274 193 s u2;
#X obj 305 193 s u3;
#X obj 336 193 s u4;
#X obj 367 193 s u5;
#X obj 222 223 s u6;
#X obj 253 223 s u7;
#X obj 284 223 s u8;
#X obj 315 223 s u9;
#X obj 346 223 s u10;
#X obj 377 223 s u11;
#X obj 57 45 r StartReset;
#X obj 331 60 list prepend set;
#X obj 331 83 list trim;
#X msg 331 106 Control_L;
#X floatatom 196 43 5 0 0 0 - - -;
#X obj 196 65 sel 1;
#X obj 241 168 sel q w e r t y u i o p @ [;
#X connect 0 0 26 0;
#X connect 0 1 23 0;
#X connect 1 0 2 0;
#X connect 1 0 28 0;
#X connect 2 0 4 0;
#X connect 2 1 5 0;
#X connect 2 2 6 0;
#X connect 7 0 3 0;
#X connect 8 0 3 1;
#X connect 9 0 3 2;
#X connect 22 0 4 0;
#X connect 23 0 24 0;
#X connect 24 0 25 0;
#X connect 25 0 1 0;
#X connect 26 0 27 0;
#X connect 27 0 25 0;
#X connect 28 0 10 0;
#X connect 28 1 11 0;
#X connect 28 2 12 0;
#X connect 28 3 13 0;
#X connect 28 4 14 0;
#X connect 28 5 15 0;
#X connect 28 6 16 0;
#X connect 28 7 17 0;
#X connect 28 8 18 0;
#X connect 28 9 19 0;
#X connect 28 10 20 0;
#X connect 28 11 21 0;
