#N canvas 367 342 737 313 10;
#X obj 331 148 unpack s;
#X obj 302 193 s k0;
#X obj 333 193 s k1;
#X obj 364 193 s k2;
#X obj 395 193 s k3;
#X obj 426 193 s k4;
#X obj 457 193 s k5;
#X obj 312 223 s k6;
#X obj 343 223 s k7;
#X obj 374 223 s k8;
#X obj 405 223 s k9;
#X obj 436 223 s k10;
#X obj 467 223 s k11;
#X obj 507 224 s cross0;
#X obj 561 224 s cross1;
#X obj 248 14 keyname;
#X obj 331 60 list prepend set;
#X obj 331 83 list trim;
#X msg 331 106 Control_L;
#X floatatom 248 37 5 0 0 0 - - -;
#X obj 248 59 sel 1;
#X obj 331 168 sel q w e r t y u i o p @ [ a s;
#X connect 0 0 21 0;
#X connect 15 0 19 0;
#X connect 15 1 16 0;
#X connect 16 0 17 0;
#X connect 17 0 18 0;
#X connect 18 0 0 0;
#X connect 19 0 20 0;
#X connect 20 0 18 0;
#X connect 21 0 1 0;
#X connect 21 1 2 0;
#X connect 21 2 3 0;
#X connect 21 3 4 0;
#X connect 21 4 5 0;
#X connect 21 5 6 0;
#X connect 21 6 7 0;
#X connect 21 7 8 0;
#X connect 21 8 9 0;
#X connect 21 9 10 0;
#X connect 21 10 11 0;
#X connect 21 11 12 0;
#X connect 21 12 13 0;
#X connect 21 13 14 0;
