#N canvas 8 115 1005 365 8;
#X obj 30 266 +;
#X obj 30 246 +;
#X floatatom 30 174 5 0 0 0 - - -;
#X obj 30 191 t f f, f 8;
#X obj 30 210 pack f f;
#X floatatom 77 192 5 0 0 0 - - -;
#X floatatom 30 285 5 0 0 0 - - -;
#X obj 100 266 +;
#X obj 100 246 +;
#X floatatom 100 285 5 0 0 0 - - -;
#X obj 170 266 +;
#X obj 170 246 +;
#X floatatom 170 285 5 0 0 0 - - -;
#X obj 310 266 +;
#X obj 310 246 +;
#X floatatom 310 285 5 0 0 0 - - -;
#X obj 380 266 +;
#X obj 380 246 +;
#X floatatom 380 285 5 0 0 0 - - -;
#X obj 240 266 +;
#X obj 240 246 +;
#X floatatom 240 285 5 0 0 0 - - -;
#X obj 450 266 +;
#X obj 450 246 +;
#X floatatom 450 285 5 0 0 0 - - -;
#X obj 520 266 +;
#X obj 520 246 +;
#X floatatom 520 285 5 0 0 0 - - -;
#X obj 590 266 +;
#X obj 590 246 +;
#X floatatom 590 285 5 0 0 0 - - -;
#X obj 730 266 +;
#X obj 730 246 +;
#X floatatom 730 285 5 0 0 0 - - -;
#X obj 800 266 +;
#X obj 800 246 +;
#X floatatom 800 285 5 0 0 0 - - -;
#X obj 660 266 +;
#X obj 660 246 +;
#X floatatom 660 285 5 0 0 0 - - -;
#X obj 77 174 tabread \$1;
#X obj 30 327 throw~ \$2;
#X obj 100 327 throw~ \$2;
#X obj 170 327 throw~ \$2;
#X obj 240 327 throw~ \$2;
#X obj 310 327 throw~ \$2;
#X obj 380 327 throw~ \$2;
#X obj 450 327 throw~ \$2;
#X obj 520 327 throw~ \$2;
#X obj 590 327 throw~ \$2;
#X obj 660 326 throw~ \$2;
#X obj 730 327 throw~ \$2;
#X obj 800 327 throw~ \$2;
#X obj 83 30 inlet;
#X obj 133 30 inlet;
#X obj 83 70 s \$0-oct;
#X obj 51 246 r \$0-oct;
#X obj 121 246 r \$0-oct;
#X obj 191 246 r \$0-oct;
#X obj 261 246 r \$0-oct;
#X obj 331 246 r \$0-oct;
#X obj 401 246 r \$0-oct;
#X obj 471 246 r \$0-oct;
#X obj 541 246 r \$0-oct;
#X obj 611 246 r \$0-oct;
#X obj 681 246 r \$0-oct;
#X obj 751 246 r \$0-oct;
#X obj 821 246 r \$0-oct;
#X obj 133 70 s \$0-mod;
#X obj 51 266 r \$0-mod;
#X obj 121 266 r \$0-mod;
#X obj 191 266 r \$0-mod;
#X obj 261 266 r \$0-mod;
#X obj 331 266 r \$0-mod;
#X obj 401 266 r \$0-mod;
#X obj 471 266 r \$0-mod;
#X obj 541 266 r \$0-mod;
#X obj 611 266 r \$0-mod;
#X obj 681 266 r \$0-mod;
#X obj 751 266 r \$0-mod;
#X obj 821 266 r \$0-mod;
#X obj 28 29 inlet;
#X obj 30 304 mOrgel_21;
#X obj 100 304 mOrgel_21;
#X obj 170 304 mOrgel_21;
#X obj 240 304 mOrgel_21;
#X obj 310 304 mOrgel_21;
#X obj 380 304 mOrgel_21;
#X obj 450 304 mOrgel_21;
#X obj 520 304 mOrgel_21;
#X obj 590 304 mOrgel_21;
#X obj 660 304 mOrgel_21;
#X obj 730 304 mOrgel_21;
#X obj 800 304 mOrgel_21;
#X obj 870 266 +;
#X obj 870 246 +;
#X floatatom 870 285 5 0 0 0 - - -;
#X obj 870 327 throw~ \$2;
#X obj 891 246 r \$0-oct;
#X obj 891 266 r \$0-mod;
#X obj 870 304 mOrgel_21;
#X obj 30 228 route 0 1 2 3 4 5 6 7 8 9 10 11 12, f 183;
#X connect 0 0 6 0;
#X connect 1 0 0 0;
#X connect 2 0 3 0;
#X connect 3 0 4 0;
#X connect 3 1 40 0;
#X connect 4 0 101 0;
#X connect 5 0 4 1;
#X connect 6 0 82 0;
#X connect 7 0 9 0;
#X connect 8 0 7 0;
#X connect 9 0 83 0;
#X connect 10 0 12 0;
#X connect 11 0 10 0;
#X connect 12 0 84 0;
#X connect 13 0 15 0;
#X connect 14 0 13 0;
#X connect 15 0 86 0;
#X connect 16 0 18 0;
#X connect 17 0 16 0;
#X connect 18 0 87 0;
#X connect 19 0 21 0;
#X connect 20 0 19 0;
#X connect 21 0 85 0;
#X connect 22 0 24 0;
#X connect 23 0 22 0;
#X connect 24 0 88 0;
#X connect 25 0 27 0;
#X connect 26 0 25 0;
#X connect 27 0 89 0;
#X connect 28 0 30 0;
#X connect 29 0 28 0;
#X connect 30 0 90 0;
#X connect 31 0 33 0;
#X connect 32 0 31 0;
#X connect 33 0 92 0;
#X connect 34 0 36 0;
#X connect 35 0 34 0;
#X connect 36 0 93 0;
#X connect 37 0 39 0;
#X connect 38 0 37 0;
#X connect 39 0 91 0;
#X connect 40 0 5 0;
#X connect 53 0 55 0;
#X connect 54 0 68 0;
#X connect 56 0 1 1;
#X connect 57 0 8 1;
#X connect 58 0 11 1;
#X connect 59 0 20 1;
#X connect 60 0 14 1;
#X connect 61 0 17 1;
#X connect 62 0 23 1;
#X connect 63 0 26 1;
#X connect 64 0 29 1;
#X connect 65 0 38 1;
#X connect 66 0 32 1;
#X connect 67 0 35 1;
#X connect 69 0 0 1;
#X connect 70 0 7 1;
#X connect 71 0 10 1;
#X connect 72 0 19 1;
#X connect 73 0 13 1;
#X connect 74 0 16 1;
#X connect 75 0 22 1;
#X connect 76 0 25 1;
#X connect 77 0 28 1;
#X connect 78 0 37 1;
#X connect 79 0 31 1;
#X connect 80 0 34 1;
#X connect 81 0 2 0;
#X connect 82 0 41 0;
#X connect 83 0 42 0;
#X connect 84 0 43 0;
#X connect 85 0 44 0;
#X connect 86 0 45 0;
#X connect 87 0 46 0;
#X connect 88 0 47 0;
#X connect 89 0 48 0;
#X connect 90 0 49 0;
#X connect 91 0 50 0;
#X connect 92 0 51 0;
#X connect 93 0 52 0;
#X connect 94 0 96 0;
#X connect 95 0 94 0;
#X connect 96 0 100 0;
#X connect 98 0 95 1;
#X connect 99 0 94 1;
#X connect 100 0 97 0;
#X connect 101 0 1 0;
#X connect 101 1 8 0;
#X connect 101 2 11 0;
#X connect 101 3 20 0;
#X connect 101 4 14 0;
#X connect 101 5 17 0;
#X connect 101 6 23 0;
#X connect 101 7 26 0;
#X connect 101 8 29 0;
#X connect 101 9 38 0;
#X connect 101 10 32 0;
#X connect 101 11 35 0;
#X connect 101 12 95 0;
