#N canvas 241 184 530 417 10;
#X obj 98 61 inlet;
#X obj 128 161 mtof;
#X obj 174 373 outlet~;
#X obj 159 161 mtof;
#X obj 158 234 *~;
#X obj 78 161 mtof;
#X obj 159 191 osc~;
#X obj 128 191 osc~;
#X obj 188 234 *~;
#X obj 218 234 *~;
#X obj 98 84 route 0;
#X obj 174 264 +~;
#X obj 174 287 +~;
#X obj 78 136 - 12;
#X obj 128 136 + 24;
#X obj 158 136 - 24;
#X obj 78 191 osc~;
#X obj 425 59 inlet;
#X obj 425 80 t b b b;
#X msg 195 151 1 1;
#X msg 235 151 1 1;
#X msg 275 151 1 2;
#X obj 174 310 /~ 3;
#X obj 195 202 line~;
#X obj 235 202 line~;
#X obj 275 202 line~;
#X obj 98 113 t f f f b b b, f 31;
#X msg 441 102 0 50;
#X msg 482 102 0 10;
#X msg 396 102 0 50;
#X connect 0 0 10 0;
#X connect 1 0 7 0;
#X connect 3 0 6 0;
#X connect 4 0 11 0;
#X connect 5 0 16 0;
#X connect 6 0 9 0;
#X connect 7 0 8 0;
#X connect 8 0 11 1;
#X connect 9 0 12 1;
#X connect 10 1 26 0;
#X connect 11 0 12 0;
#X connect 12 0 22 0;
#X connect 13 0 5 0;
#X connect 14 0 1 0;
#X connect 15 0 3 0;
#X connect 16 0 4 0;
#X connect 17 0 18 0;
#X connect 18 0 29 0;
#X connect 18 1 27 0;
#X connect 18 2 28 0;
#X connect 19 0 23 0;
#X connect 20 0 24 0;
#X connect 21 0 25 0;
#X connect 22 0 2 0;
#X connect 23 0 4 1;
#X connect 24 0 8 1;
#X connect 25 0 9 1;
#X connect 26 0 13 0;
#X connect 26 1 14 0;
#X connect 26 2 15 0;
#X connect 26 3 19 0;
#X connect 26 4 20 0;
#X connect 26 5 21 0;
#X connect 27 0 24 0;
#X connect 28 0 25 0;
#X connect 29 0 23 0;
