#N canvas 13 169 880 205 10;
#X obj 23 23 keyname;
#X symbolatom 62 46 10 0 0 0 - - -;
#X floatatom 23 46 5 0 0 0 - - -;
#X obj 156 18 key;
#X floatatom 156 56 3 0 0 0 - - -;
#X floatatom 193 68 3 0 0 0 - - -;
#X obj 195 18 keyup;
#X obj 42 99 pack float symbol float float;
#N canvas 0 0 450 300 (subpatch) 0;
#X array \$0-key 256 float 0;
#X coords 0 1.2 255 0 256 20 1 0 0;
#X restore 163 157 graph;
#X obj 234 18 inlet;
#X obj 234 90 outlet;
#X obj 193 44 spell;
#X obj 274 18 inlet;
#X obj 274 130 outlet;
#X obj 324 18 inlet;
#X obj 324 90 outlet;
#X obj 234 39 spell;
#X obj 274 39 spell;
#X obj 324 39 spell;
#X obj 364 18 inlet;
#X obj 364 130 outlet;
#X obj 364 39 spell;
#X obj 414 18 inlet;
#X obj 414 90 outlet;
#X obj 414 39 spell;
#X obj 454 18 inlet;
#X obj 454 130 outlet;
#X obj 454 39 spell;
#X obj 504 18 inlet;
#X obj 504 90 outlet;
#X obj 504 39 spell;
#X obj 24 151 tabwrite \$0-key;
#X obj 234 69 tabread \$0-key;
#X obj 274 109 tabread \$0-key;
#X obj 324 69 tabread \$0-key;
#X obj 364 109 tabread \$0-key;
#X obj 414 69 tabread \$0-key;
#X obj 454 109 tabread \$0-key;
#X obj 504 69 tabread \$0-key;
#X obj 594 18 inlet;
#X obj 594 90 outlet;
#X obj 594 39 spell;
#X obj 634 18 inlet;
#X obj 634 130 outlet;
#X obj 634 39 spell;
#X obj 684 18 inlet;
#X obj 684 90 outlet;
#X obj 684 39 spell;
#X obj 724 18 inlet;
#X obj 724 130 outlet;
#X obj 724 39 spell;
#X obj 774 18 inlet;
#X obj 774 90 outlet;
#X obj 774 39 spell;
#X obj 544 109 tabread \$0-key;
#X obj 594 69 tabread \$0-key;
#X obj 634 109 tabread \$0-key;
#X obj 684 69 tabread \$0-key;
#X obj 724 109 tabread \$0-key;
#X obj 774 69 tabread \$0-key;
#X obj 544 18 inlet;
#X obj 544 130 outlet;
#X obj 544 39 spell;
#X connect 0 0 2 0;
#X connect 0 1 1 0;
#X connect 1 0 7 1;
#X connect 1 0 11 0;
#X connect 2 0 7 0;
#X connect 2 0 31 0;
#X connect 3 0 4 0;
#X connect 4 0 5 0;
#X connect 4 0 7 2;
#X connect 5 0 7 3;
#X connect 5 0 31 1;
#X connect 9 0 16 0;
#X connect 11 0 5 0;
#X connect 12 0 17 0;
#X connect 14 0 18 0;
#X connect 16 0 32 0;
#X connect 17 0 33 0;
#X connect 18 0 34 0;
#X connect 19 0 21 0;
#X connect 21 0 35 0;
#X connect 22 0 24 0;
#X connect 24 0 36 0;
#X connect 25 0 27 0;
#X connect 27 0 37 0;
#X connect 28 0 30 0;
#X connect 30 0 38 0;
#X connect 32 0 10 0;
#X connect 33 0 13 0;
#X connect 34 0 15 0;
#X connect 35 0 20 0;
#X connect 36 0 23 0;
#X connect 37 0 26 0;
#X connect 38 0 29 0;
#X connect 39 0 41 0;
#X connect 41 0 55 0;
#X connect 42 0 44 0;
#X connect 44 0 56 0;
#X connect 45 0 47 0;
#X connect 47 0 57 0;
#X connect 48 0 50 0;
#X connect 50 0 58 0;
#X connect 51 0 53 0;
#X connect 53 0 59 0;
#X connect 54 0 61 0;
#X connect 55 0 40 0;
#X connect 56 0 43 0;
#X connect 57 0 46 0;
#X connect 58 0 49 0;
#X connect 59 0 52 0;
#X connect 60 0 62 0;
#X connect 62 0 54 0;
