#N canvas 53 114 932 566 8;
#X obj 19 22 loadbang;
#X msg 69 21 \; pd dsp 1;
#X obj 19 39 del 500;
#X obj 19 56 t b b b b;
#N canvas 2 103 450 250 (subpatch) 0;
#X array \$0-chord 24 float 3;
#A 0 1 3 6 8 10 13 15 18 20 22 25 27 30 32 34 37 39 42 44 46 49 51
54 58;
#X coords 0 127 24 0 100 50 1 0 0;
#X restore 579 482 graph;
#N canvas 2 103 450 250 (subpatch) 0;
#X array \$0-c1 5 float 3;
#A 0 1 3 6 8 10;
#X coords 0 15 5 0 50 50 1 0 0;
#X restore 678 482 graph;
#N canvas 2 103 450 250 (subpatch) 0;
#X array \$0-c2 5 float 3;
#A 0 5 6 8 12 13;
#X coords 0 15 5 0 50 50 1 0 0;
#X restore 727 482 graph;
#N canvas 529 50 450 300 delay_effect 0;
#X obj 105 120 vsl 15 32 0 1 0 1 empty empty delay 0 -9 0 10 -262144
-1 -1 0 1;
#X obj 158 68 inlet;
#X obj 247 175 *~;
#X obj 62 68 loadbang;
#X obj 115 68 inlet~;
#X obj 188 224 outlet~;
#X obj 248 205 delwrite~ \$0-delayA 1000;
#X obj 247 124 delread~ \$0-delayA \$1;
#X obj 232 68 inlet;
#X obj 284 68 loadbang;
#X msg 284 95 150;
#X connect 0 0 2 1;
#X connect 1 0 0 0;
#X connect 2 0 5 0;
#X connect 2 0 6 0;
#X connect 3 0 0 0;
#X connect 4 0 5 0;
#X connect 4 0 6 0;
#X connect 7 0 2 0;
#X connect 8 0 7 0;
#X connect 9 0 10 0;
#X connect 10 0 7 0;
#X coords 0 -1 1 1 60 62 2 100 100;
#X restore 579 402 pd delay_effect;
#N canvas 206 230 713 420 finalout 0;
#X obj 425 36 tgl 15 0 empty empty empty 17 7 0 10 -262144 -1 -1 1
1;
#X obj 425 10 loadbang;
#X obj 425 130 tabwrite~ \$0-out;
#X msg 433 61 \; pd dsp \$1;
#X text 498 67 dsp on;
#X obj 258 385 dac~;
#X obj 109 136 cnv 15 60 40 empty empty empty 20 12 0 14 -262144 -66577
0;
#N canvas 0 50 450 278 (subpatch) 0;
#X array \$0-out 100 float 5;
#A 0 1.12955e-08 1.48686e-08 1.79834e-08 2.054e-08 2.24456e-08 2.36184e-08
2.3993e-08 2.35148e-08 2.21474e-08 1.98727e-08 1.66796e-08 1.25847e-08
7.61703e-09 1.81834e-09 -4.74951e-09 -1.20174e-08 -1.99017e-08 -2.83025e-08
-3.7116e-08 -4.62313e-08 -5.55321e-08 -6.48984e-08 -7.4212e-08 -8.33528e-08
-9.22026e-08 -1.00656e-07 -1.08611e-07 -1.1597e-07 -1.22656e-07 -1.28595e-07
-1.33732e-07 -1.38027e-07 -1.41451e-07 -1.43993e-07 -1.4566e-07 -1.46469e-07
-1.46458e-07 -1.45678e-07 -1.44194e-07 -1.42082e-07 -1.39429e-07 -1.36336e-07
-1.32906e-07 -1.29253e-07 -1.25493e-07 -1.21743e-07 -1.18123e-07 -1.14746e-07
-1.11723e-07 -1.09159e-07 -1.07149e-07 -1.05784e-07 -1.05128e-07 -1.05249e-07
-1.06188e-07 -1.07979e-07 -1.10634e-07 -1.14152e-07 -1.18512e-07 -1.23683e-07
-1.29613e-07 -1.36238e-07 -1.43484e-07 -1.51263e-07 1.62751e-08 1.11046e-08
4.71678e-09 -2.71933e-09 -1.10164e-08 -1.99727e-08 -2.93771e-08 -3.90089e-08
-4.86443e-08 -5.80606e-08 -6.70359e-08 -7.53603e-08 -8.28282e-08 -8.92533e-08
-9.44619e-08 -9.83041e-08 -1.00647e-07 -1.01386e-07 -1.0044e-07 -9.77549e-08
-9.33064e-08 -8.70967e-08 -7.91569e-08 -6.9547e-08 -5.83533e-08 -4.56895e-08
-3.1691e-08 -1.65169e-08 -3.47303e-10 1.66224e-08 3.41821e-08 5.21118e-08
7.01825e-08 8.81623e-08 1.05821e-07 1.22931e-07;
#X coords 0 -1 99 1 60 40 1;
#X restore 110 136 graph;
#X obj 40 9 inlet~;
#X obj 194 141 vsl 15 32 0 1 0 1 empty empty empty 0 -9 0 10 -204786
-1 -1 1700 1;
#X text 193 102 VOL;
#X obj 40 41 *~;
#X obj 274 278 lop~ 16000;
#X obj 274 305 hip~ 5;
#X obj 362 165 loadbang;
#X obj 194 118 tgl 15 0 empty empty empty 17 7 0 10 -262144 -1 -1 1
1;
#X obj 275 334 *~;
#X obj 220 109 vsl 15 64 0 1 0 1 empty empty empty 0 -9 0 10 -204800
-1 -1 2900 1;
#X obj 106 203 expr~ $v1*(1-$f2);
#X obj 236 203 expr~ $v1*$f2;
#X msg 194 66 1;
#X obj 194 43 loadbang;
#X text 103 102 MONO;
#X obj 425 106 metro 50;
#X obj 294 385 s~ \$0-finalWave;
#X obj 487 106 r~ \$0-finalWave;
#X obj 274 246 pd-freeverb/freeverb~;
#X msg 362 192 roomsize 0.9 \, dry 0.4 \, wet 0.8;
#X connect 0 0 3 0;
#X connect 0 0 23 0;
#X connect 1 0 0 0;
#X connect 8 0 11 0;
#X connect 9 0 11 1;
#X connect 11 0 18 0;
#X connect 11 0 19 0;
#X connect 12 0 13 0;
#X connect 13 0 16 0;
#X connect 14 0 27 0;
#X connect 15 0 16 1;
#X connect 16 0 5 1;
#X connect 16 0 5 0;
#X connect 16 0 24 0;
#X connect 17 0 18 1;
#X connect 17 0 19 1;
#X connect 18 0 12 0;
#X connect 19 0 26 0;
#X connect 20 0 15 0;
#X connect 21 0 20 0;
#X connect 23 0 2 0;
#X connect 25 0 2 0;
#X connect 26 0 12 0;
#X connect 27 0 26 0;
#X coords 0 -1 1 1 146 80 2 100 100;
#X restore 645 384 pd finalout;
#X obj 579 384 catch~ \$0-w;
#X obj 578 346 bng 15 250 50 0 empty empty empty 17 7 0 10 -262144
-1 -1;
#X obj 706 346 bng 15 250 50 0 empty empty empty 17 7 0 10 -262144
-1 -1;
#X obj 578 286 loadbang;
#X obj 626 286 r ChengeChord;
#X obj 596 347 s SetChord;
#X obj 724 347 s SetChord;
#X obj 578 326 sel 0 1;
#X msg 578 306 0;
#X obj 578 363 chord_set \$0-c1 \$0-chord;
#X obj 706 363 chord_set \$0-c2 \$0-chord;
#X obj 802 438 loadbang;
#X obj 802 496 hradio 15 1 0 7 empty empty empty 0 -8 0 10 -261234
-1 -1 0;
#X floatatom 802 516 5 0 0 0 - - -;
#X obj 802 456 hradio 15 1 0 7 empty empty empty 0 -8 0 10 -262130
-1 -1 3;
#X obj 802 476 * 12;
#X floatatom 829 476 5 0 0 0 - - -;
#X obj 20 324 key_ctl, f 91;
#X obj 20 261 metro 10;
#X obj 19 239 tgl 15 0 empty empty empty 17 7 0 10 -262144 -1 -1 1
1;
#X obj 20 352 kchek;
#X obj 60 352 kchek;
#X obj 100 352 kchek;
#X obj 748 286 r \$0-oct;
#X obj 859 476 s \$0-oct;
#X obj 831 516 s \$0-mod;
#X obj 798 286 r \$0-mod;
#X msg 20 369 0;
#X msg 60 369 1;
#X msg 100 369 2;
#X obj 140 352 kchek;
#X obj 180 352 kchek;
#X obj 220 352 kchek;
#X obj 260 352 kchek;
#X msg 140 369 3;
#X msg 180 369 4;
#X msg 220 369 5;
#X msg 260 369 6;
#X obj 20 281 t b b b b b b b b b b b b, f 91;
#X obj 300 352 kchek;
#X obj 340 352 kchek;
#X obj 380 352 kchek;
#X obj 420 352 kchek;
#X obj 460 352 kchek;
#X obj 500 352 kchek;
#X msg 300 369 7;
#X msg 340 369 8;
#X msg 380 369 9;
#X msg 420 369 10;
#X msg 460 369 11;
#X msg 500 369 12;
#X msg 20 304 q;
#X msg 61 304 w;
#X msg 101 304 e;
#X msg 140 304 r;
#X msg 181 304 t;
#X msg 221 304 y;
#X msg 261 304 u;
#X msg 301 304 i;
#X msg 340 304 o;
#X msg 381 304 p;
#X msg 422 304 @;
#X msg 461 304 [;
#X obj 20 389 s \$0-n;
#X obj 60 389 s \$0-n;
#X obj 100 389 s \$0-n;
#X obj 140 389 s \$0-n;
#X obj 180 389 s \$0-n;
#X obj 220 389 s \$0-n;
#X obj 260 389 s \$0-n;
#X obj 300 389 s \$0-n;
#X obj 340 389 s \$0-n;
#X obj 380 389 s \$0-n;
#X obj 420 389 s \$0-n;
#X obj 460 389 s \$0-n;
#X obj 500 389 s \$0-n;
#X obj 707 286 r \$0-n;
#X obj 32 81 tgl 15 0 empty empty empty 17 7 0 10 -262144 -1 -1 0 1
;
#X floatatom 32 156 5 0 0 0 - - -;
#X obj 32 103 metro 150;
#X obj 94 151 bng 15 250 50 0 empty empty empty 17 7 0 10 -262144 -1
-1;
#X obj 32 217 s \$0-n;
#X msg 32 196 8;
#X msg 62 196 9;
#X msg 92 196 10;
#X msg 122 196 11;
#X obj 32 130 counter 0 1 4;
#X obj 32 174 sel 1 2 3 4;
#X obj 707 309 mSound_stone1 \$0-chord \$0-w;
#X msg 850 438 3;
#X obj 137 83 s &0-t0;
#X msg 137 63 3000;
#X msg 177 63 3000;
#X msg 217 63 3000;
#X msg 257 63 3000;
#X msg 297 63 3000;
#X msg 337 63 3000;
#X msg 377 63 3000;
#X msg 417 63 3000;
#X msg 457 63 3000;
#X msg 497 63 3000;
#X msg 537 63 3000;
#X msg 577 63 3000;
#X msg 617 63 3000;
#X obj 177 83 s &0-t1;
#X obj 217 83 s &0-t2;
#X obj 257 83 s &0-t3;
#X obj 297 83 s &0-t4;
#X obj 337 83 s &0-t5;
#X obj 377 83 s &0-t6;
#X obj 417 83 s &0-t7;
#X obj 457 83 s &0-t8;
#X obj 497 83 s &0-t9;
#X obj 537 83 s &0-tA;
#X obj 577 83 s &0-tB;
#X obj 617 83 s &0-tC;
#X obj 137 37 t b b b b b b b b b b b b b, f 99;
#X obj 137 19 loadbang;
#X obj 191 18 bng 15 250 50 0 empty empty empty 17 7 0 10 -262144 -1
-1;
#X floatatom 20 441 5 0 0 0 - - -;
#X floatatom 50 441 5 0 0 0 - - -;
#X floatatom 80 441 5 0 0 0 - - -;
#X floatatom 110 441 5 0 0 0 - - -;
#X floatatom 140 441 5 0 0 0 - - -;
#X floatatom 170 441 5 0 0 0 - - -;
#X floatatom 200 441 5 0 0 0 - - -;
#X floatatom 230 441 5 0 0 0 - - -;
#X floatatom 260 441 5 0 0 0 - - -;
#X floatatom 290 441 5 0 0 0 - - -;
#X floatatom 320 441 5 0 0 0 - - -;
#X floatatom 350 441 5 0 0 0 - - -;
#X obj 20 421 osc-rcv 4000 touch, f 74;
#X msg 20 499 0;
#X msg 60 499 1;
#X msg 100 499 2;
#X msg 140 499 3;
#X msg 180 499 4;
#X msg 220 499 5;
#X msg 260 499 6;
#X msg 300 499 7;
#X msg 340 499 8;
#X msg 380 499 9;
#X msg 420 499 10;
#X msg 460 499 11;
#X msg 500 499 12;
#X obj 20 519 s \$0-n;
#X obj 60 519 s \$0-n;
#X obj 100 519 s \$0-n;
#X obj 140 519 s \$0-n;
#X obj 180 519 s \$0-n;
#X obj 220 519 s \$0-n;
#X obj 260 519 s \$0-n;
#X obj 300 519 s \$0-n;
#X obj 340 519 s \$0-n;
#X obj 380 519 s \$0-n;
#X obj 420 519 s \$0-n;
#X obj 460 519 s \$0-n;
#X obj 500 519 s \$0-n;
#X floatatom 380 441 5 0 0 0 - - -;
#X obj 20 482 tchek;
#X obj 60 482 tchek;
#X obj 100 482 tchek;
#X obj 140 482 tchek;
#X obj 180 482 tchek;
#X obj 220 482 tchek;
#X obj 260 482 tchek;
#X obj 300 482 tchek;
#X obj 340 482 tchek;
#X obj 380 482 tchek;
#X obj 420 482 tchek;
#X obj 460 482 tchek;
#X obj 500 482 tchek;
#X obj 41 463 r \$0-t0;
#X obj 81 463 r \$0-t1;
#X obj 121 463 r \$0-t2;
#X obj 161 463 r \$0-t3;
#X obj 201 463 r \$0-t4;
#X obj 241 463 r \$0-t5;
#X obj 281 463 r \$0-t6;
#X obj 321 463 r \$0-t7;
#X obj 361 463 r \$0-t8;
#X obj 401 463 r \$0-t9;
#X obj 441 463 r \$0-tA;
#X obj 481 463 r \$0-tB;
#X obj 521 463 r \$0-tC;
#X connect 0 0 2 0;
#X connect 2 0 3 0;
#X connect 3 0 28 0;
#X connect 3 1 86 0;
#X connect 3 3 1 0;
#X connect 7 0 8 0;
#X connect 9 0 7 0;
#X connect 10 0 14 0;
#X connect 10 0 18 0;
#X connect 11 0 15 0;
#X connect 11 0 19 0;
#X connect 12 0 17 0;
#X connect 13 0 16 0;
#X connect 16 0 10 0;
#X connect 16 1 11 0;
#X connect 17 0 16 0;
#X connect 20 0 98 0;
#X connect 21 0 22 0;
#X connect 22 0 34 0;
#X connect 23 0 24 0;
#X connect 24 0 25 0;
#X connect 25 0 33 0;
#X connect 26 0 29 0;
#X connect 26 1 30 0;
#X connect 26 2 31 0;
#X connect 26 3 39 0;
#X connect 26 4 40 0;
#X connect 26 5 41 0;
#X connect 26 6 42 0;
#X connect 26 7 48 0;
#X connect 26 8 49 0;
#X connect 26 9 50 0;
#X connect 26 10 51 0;
#X connect 26 11 52 0;
#X connect 26 12 53 0;
#X connect 27 0 47 0;
#X connect 28 0 27 0;
#X connect 29 0 36 0;
#X connect 30 0 37 0;
#X connect 31 0 38 0;
#X connect 32 0 97 1;
#X connect 35 0 97 2;
#X connect 36 0 72 0;
#X connect 37 0 73 0;
#X connect 38 0 74 0;
#X connect 39 0 43 0;
#X connect 40 0 44 0;
#X connect 41 0 45 0;
#X connect 42 0 46 0;
#X connect 43 0 75 0;
#X connect 44 0 76 0;
#X connect 45 0 77 0;
#X connect 46 0 78 0;
#X connect 47 0 60 0;
#X connect 47 1 61 0;
#X connect 47 2 62 0;
#X connect 47 3 63 0;
#X connect 47 4 64 0;
#X connect 47 5 65 0;
#X connect 47 6 66 0;
#X connect 47 7 67 0;
#X connect 47 8 68 0;
#X connect 47 9 69 0;
#X connect 47 10 70 0;
#X connect 47 11 71 0;
#X connect 48 0 54 0;
#X connect 49 0 55 0;
#X connect 50 0 56 0;
#X connect 51 0 57 0;
#X connect 52 0 58 0;
#X connect 53 0 59 0;
#X connect 54 0 79 0;
#X connect 55 0 80 0;
#X connect 56 0 81 0;
#X connect 57 0 82 0;
#X connect 58 0 83 0;
#X connect 59 0 84 0;
#X connect 60 0 26 0;
#X connect 61 0 26 1;
#X connect 62 0 26 2;
#X connect 63 0 26 3;
#X connect 64 0 26 4;
#X connect 65 0 26 5;
#X connect 66 0 26 6;
#X connect 67 0 26 7;
#X connect 68 0 26 8;
#X connect 69 0 26 9;
#X connect 70 0 26 10;
#X connect 71 0 26 11;
#X connect 85 0 97 0;
#X connect 86 0 88 0;
#X connect 87 0 96 0;
#X connect 88 0 95 0;
#X connect 89 0 86 0;
#X connect 91 0 90 0;
#X connect 92 0 90 0;
#X connect 93 0 90 0;
#X connect 94 0 90 0;
#X connect 95 0 87 0;
#X connect 95 3 89 0;
#X connect 96 0 91 0;
#X connect 96 1 92 0;
#X connect 96 2 93 0;
#X connect 96 3 94 0;
#X connect 98 0 23 0;
#X connect 100 0 99 0;
#X connect 101 0 113 0;
#X connect 102 0 114 0;
#X connect 103 0 115 0;
#X connect 104 0 116 0;
#X connect 105 0 117 0;
#X connect 106 0 118 0;
#X connect 107 0 119 0;
#X connect 108 0 120 0;
#X connect 109 0 121 0;
#X connect 110 0 122 0;
#X connect 111 0 123 0;
#X connect 112 0 124 0;
#X connect 125 0 100 0;
#X connect 125 1 101 0;
#X connect 125 2 102 0;
#X connect 125 3 103 0;
#X connect 125 4 104 0;
#X connect 125 5 105 0;
#X connect 125 6 106 0;
#X connect 125 7 107 0;
#X connect 125 8 108 0;
#X connect 125 9 109 0;
#X connect 125 10 110 0;
#X connect 125 11 111 0;
#X connect 125 12 112 0;
#X connect 126 0 125 0;
#X connect 127 0 125 0;
#X connect 128 0 168 0;
#X connect 129 0 169 0;
#X connect 130 0 170 0;
#X connect 131 0 171 0;
#X connect 132 0 172 0;
#X connect 133 0 173 0;
#X connect 134 0 174 0;
#X connect 135 0 175 0;
#X connect 136 0 176 0;
#X connect 137 0 177 0;
#X connect 138 0 178 0;
#X connect 139 0 179 0;
#X connect 140 0 128 0;
#X connect 140 1 129 0;
#X connect 140 2 130 0;
#X connect 140 3 131 0;
#X connect 140 4 132 0;
#X connect 140 5 133 0;
#X connect 140 6 134 0;
#X connect 140 7 135 0;
#X connect 140 8 136 0;
#X connect 140 9 137 0;
#X connect 140 10 138 0;
#X connect 140 11 139 0;
#X connect 140 12 167 0;
#X connect 141 0 154 0;
#X connect 142 0 155 0;
#X connect 143 0 156 0;
#X connect 144 0 157 0;
#X connect 145 0 158 0;
#X connect 146 0 159 0;
#X connect 147 0 160 0;
#X connect 148 0 161 0;
#X connect 149 0 162 0;
#X connect 150 0 163 0;
#X connect 151 0 164 0;
#X connect 152 0 165 0;
#X connect 153 0 166 0;
#X connect 167 0 180 0;
#X connect 168 0 141 0;
#X connect 169 0 142 0;
#X connect 170 0 143 0;
#X connect 171 0 144 0;
#X connect 172 0 145 0;
#X connect 173 0 146 0;
#X connect 174 0 147 0;
#X connect 175 0 148 0;
#X connect 176 0 149 0;
#X connect 177 0 150 0;
#X connect 178 0 151 0;
#X connect 179 0 152 0;
#X connect 180 0 153 0;
#X connect 181 0 168 1;
#X connect 182 0 169 1;
#X connect 183 0 170 1;
#X connect 184 0 171 1;
#X connect 185 0 172 1;
#X connect 186 0 173 1;
#X connect 187 0 174 1;
#X connect 188 0 175 1;
#X connect 189 0 176 1;
#X connect 190 0 177 1;
#X connect 191 0 178 1;
#X connect 192 0 179 1;
#X connect 193 0 180 1;
