#N canvas 286 264 764 323 10;
#X obj 132 84 oscparse;
#X obj 132 110 route list;
#X obj 85 262 outlet;
#X obj 132 57 netreceive -u -b \$1;
#X obj 132 156 route \$2;
#X obj 135 262 outlet;
#X obj 185 262 outlet;
#X obj 235 262 outlet;
#X obj 285 262 outlet;
#X obj 335 262 outlet;
#X obj 385 262 outlet;
#X obj 435 262 outlet;
#X obj 485 262 outlet;
#X obj 535 262 outlet;
#X obj 585 262 outlet;
#X obj 635 262 outlet;
#X obj 132 186 unpack f f f f f f f f f f f f f, f 71;
#X obj 685 262 outlet;
#X connect 0 0 1 0;
#X connect 1 0 4 0;
#X connect 3 0 0 0;
#X connect 4 0 16 0;
#X connect 16 0 2 0;
#X connect 16 1 5 0;
#X connect 16 2 6 0;
#X connect 16 3 7 0;
#X connect 16 4 8 0;
#X connect 16 5 9 0;
#X connect 16 6 10 0;
#X connect 16 7 11 0;
#X connect 16 8 12 0;
#X connect 16 9 13 0;
#X connect 16 10 14 0;
#X connect 16 11 15 0;
#X connect 16 12 17 0;
