#N canvas 0 50 450 300 8;
#X floatatom 170 37 5 0 0 0 - - -;
#X obj 172 210 onebang 1;
#X obj 172 151 line;
#X obj 172 190 sel 1;
#X msg 153 123 1;
#X obj 172 171 > 0.5;
#X msg 198 122 0 100;
#X obj 170 14 inlet;
#X obj 172 250 outlet;
#X obj 232 189 sel 1;
#X obj 232 209 onebang 1;
#X obj 231 228 bng 15 250 50 0 empty empty empty 17 7 0 10 -262144
-1 -1;
#X obj 172 229 bng 15 250 50 0 empty empty empty 17 7 0 10 -262144
-1 -1;
#X obj 232 170 < 0.25;
#X obj 231 248 outlet;
#X floatatom 170 76 5 0 0 0 - - -;
#X obj 170 95 sel 1;
#X obj 300 14 inlet;
#X obj 170 56 expr if($i1>$i2 \, 1 \, 0) \;;
#X connect 0 0 18 0;
#X connect 1 0 12 0;
#X connect 2 0 5 0;
#X connect 2 0 13 0;
#X connect 3 0 1 0;
#X connect 3 1 1 1;
#X connect 4 0 2 0;
#X connect 5 0 3 0;
#X connect 6 0 2 0;
#X connect 7 0 0 0;
#X connect 9 0 10 0;
#X connect 9 1 10 1;
#X connect 10 0 11 0;
#X connect 11 0 14 0;
#X connect 12 0 8 0;
#X connect 13 0 9 0;
#X connect 15 0 16 0;
#X connect 16 0 4 0;
#X connect 16 1 6 0;
#X connect 17 0 18 1;
#X connect 18 0 15 0;
