#N canvas 509 291 450 375 8;
#X obj 94 20 inlet;
#X obj 154 120 mtof;
#X obj 103 330 outlet~;
#X obj 301 30 inlet;
#X obj 301 111 / 127;
#X obj 185 120 mtof;
#X obj 301 90 line, f 8;
#X obj 124 193 *~;
#X obj 124 120 mtof;
#X obj 124 140 osc~;
#X obj 185 140 osc~;
#X obj 154 140 osc~;
#X floatatom 301 130 5 0 0 0 - - -;
#X obj 154 193 *~;
#X obj 184 193 *~;
#X obj 104 229 +~;
#X obj 104 249 +~;
#X msg 301 62 \$1 100;
#X obj 185 88 + 24;
#X obj 225 120 mtof;
#X obj 225 140 osc~;
#X obj 224 193 *~;
#X obj 94 193 *~;
#X obj 94 120 mtof;
#X obj 94 140 osc~;
#X obj 124 88 + 0;
#X obj 154 88 + 12;
#X obj 225 88 + 36;
#X obj 104 309 /~ 5;
#X obj 104 269 +~;
#X obj 104 289 +~;
#X obj 94 88 - 24;
#X obj 94 43 t f f f f f;
#X obj 301 149 t f f f f f;
#X connect 0 0 32 0;
#X connect 1 0 11 0;
#X connect 3 0 17 0;
#X connect 4 0 12 0;
#X connect 5 0 10 0;
#X connect 6 0 4 0;
#X connect 7 0 15 1;
#X connect 8 0 9 0;
#X connect 9 0 7 0;
#X connect 10 0 14 0;
#X connect 11 0 13 0;
#X connect 12 0 33 0;
#X connect 13 0 16 1;
#X connect 14 0 29 1;
#X connect 15 0 16 0;
#X connect 16 0 29 0;
#X connect 17 0 6 0;
#X connect 18 0 5 0;
#X connect 19 0 20 0;
#X connect 20 0 21 0;
#X connect 21 0 30 1;
#X connect 22 0 15 0;
#X connect 23 0 24 0;
#X connect 24 0 22 0;
#X connect 25 0 8 0;
#X connect 26 0 1 0;
#X connect 27 0 19 0;
#X connect 28 0 2 0;
#X connect 29 0 30 0;
#X connect 30 0 28 0;
#X connect 31 0 23 0;
#X connect 32 0 31 0;
#X connect 32 1 25 0;
#X connect 32 2 26 0;
#X connect 32 3 18 0;
#X connect 32 4 27 0;
#X connect 33 0 22 1;
#X connect 33 1 7 1;
#X connect 33 2 13 1;
#X connect 33 3 14 1;
#X connect 33 4 21 1;
