#N canvas 0 25 450 300 8;
#X obj 158 63 inlet;
#X obj 158 103 random 6;
#X obj 158 83 t b b;
#X obj 158 143 +;
#X obj 158 223 outlet;
#X obj 238 103 random 3;
#X obj 238 123 * 12;
#X floatatom 158 203 5 0 0 0 - - -;
#X obj 179 163 r oct;
#X obj 158 183 +;
#X obj 179 183 r mod;
#X obj 158 163 +;
#X obj 158 123 tabread \$1;
#X connect 0 0 2 0;
#X connect 1 0 12 0;
#X connect 2 0 1 0;
#X connect 2 1 5 0;
#X connect 3 0 11 0;
#X connect 5 0 6 0;
#X connect 6 0 3 1;
#X connect 7 0 4 0;
#X connect 8 0 11 1;
#X connect 9 0 7 0;
#X connect 10 0 9 1;
#X connect 11 0 9 0;
#X connect 12 0 3 0;
